# xmcd
#
# Track frame offsets:
#	200
#	10610
#	23327
#	36425
#	50092
#	62357
#	75300
#	87342
#	99582
#	113222
#
# Disc length: 1655 seconds
# Revision: 3
# Processed by: cddbd v1.5.2PL0 Copyright (c) Steve Scherf et al.
# Submitted via: dBpowerAMP V12.0
#
DISCID=6a06750a
DTITLE=Olan Miller - Country Livin'
DYEAR=1995
DGENRE=Country
TTITLE0=If Our Camper's Rocking
TTITLE1=Until We Get It Right
TTITLE2=We Don't Say We're Sorry Anymore
TTITLE3=Something's Wrong
TTITLE4=Happy Anniversary
TTITLE5=(I'm Gettin') Better By The Beer
TTITLE6=Just A Minute
TTITLE7=Happy Birthday, My Darlin'
TTITLE8=The Flag
TTITLE9=Country Way Of Livin'
EXTD=
EXTT0=
EXTT1=
EXTT2=
EXTT3=
EXTT4=
EXTT5=
EXTT6=
EXTT7=
EXTT8=
EXTT9=
PLAYORDER=
